<svg version="1.1" id="Layer_1" xmlns="http://www.w3.org/2000/svg" xmlns:xlink="http://www.w3.org/1999/xlink" x="0px" y="0px"
	 width="100%" viewBox="0 0 240 240" enable-background="new 0 0 240 240" xml:space="preserve">
<path fill="#000000" opacity="1.000000" stroke="none" 
	d="
M137.265320,208.360382 
	C120.965103,205.745178 105.213821,202.384277 89.285385,200.749481 
	C74.578163,199.240036 59.616989,199.207184 46.528511,208.289764 
	C45.580029,208.947952 44.475048,209.387650 43.423813,209.889069 
	C41.802544,210.662399 40.138313,210.729080 38.746769,209.524887 
	C37.279942,208.255554 37.395500,206.444839 38.066265,204.901718 
	C39.392101,201.851608 41.017780,198.933517 42.444866,195.925446 
	C47.696449,184.855988 48.844769,173.291916 47.887665,161.100327 
	C46.314850,141.065903 40.179794,121.726242 39.011272,101.745049 
	C38.248920,88.709099 41.331314,76.205063 49.118195,64.988899 
	C55.928238,55.179764 64.063194,47.161438 74.790710,42.052586 
	C103.298180,28.476234 137.866119,41.280773 148.378326,73.062752 
	C151.085876,81.248611 151.648239,89.439499 149.700272,97.624023 
	C152.981155,99.730598 155.693939,97.754524 158.366837,97.537254 
	C187.366760,95.179947 205.019760,116.689957 210.255585,140.680435 
	C214.242920,158.950287 208.895447,174.515518 196.190216,188.200500 
	C183.509430,201.859146 168.134125,208.365204 149.731323,208.369629 
	C145.733215,208.370605 141.735092,208.368271 137.265320,208.360382 
M77.214127,172.550323 
	C90.899078,171.775726 104.219398,174.490631 117.685837,176.257385 
	C125.337639,177.261292 133.590576,178.510147 141.048111,173.931580 
	C153.199036,166.471512 160.105438,159.991684 157.561508,144.353638 
	C155.656616,132.643921 146.784683,124.678764 136.731873,125.465866 
	C132.837036,125.770813 128.929550,126.532448 125.167877,127.903290 
	C123.455307,128.527390 121.389290,130.100494 119.634438,128.289429 
	C117.784676,126.380402 119.080139,124.404457 119.981255,122.358688 
	C122.822273,115.908791 123.018806,109.228195 120.730782,102.590202 
	C117.586403,93.467766 100.785912,85.778717 87.648193,93.518105 
	C73.253052,101.998215 69.119492,112.607018 72.057076,129.380569 
	C74.328201,142.348618 77.572472,155.286194 75.406158,168.665787 
	C75.202919,169.921036 75.107666,171.371185 77.214127,172.550323 
z"/>
</svg>